<svg xmlns="http://www.w3.org/2000/svg" width="67" height="67" viewBox="0 0 67 67"><g transform="matrix(1 0 0 -1 .33 66.67)" fill="none" fill-rule="evenodd"><circle fill="#DEE0FF" cx="32.17" cy="32.17" r="21"></circle><circle fill="#010ED0" cx="32.17" cy="32.17" r="11.5"></circle><circle fill="#DEE0FF" cx="32.17" cy="32.17" r="2"></circle><path d="M32.13 0A32.13 32.13 0 0 1 55.3 54.37l4.52 4.51h6.84v1.34h-6.45v6.45h-1.34v-6.84l-4.51-4.52A32.13 32.13 0 1 1 32.13 0Zm0 1.33a30.8 30.8 0 1 0 21.3 53.04l-6.09-6.08a22.2 22.2 0 1 1 .94-.94l6.09 6.08a30.8 30.8 0 0 0-22.24-52.1Zm0 9.94A20.86 20.86 0 1 0 46.4 47.34l-6.09-6.09a12.26 12.26 0 1 1 .94-.94l6.1 6.09a20.86 20.86 0 0 0-15.22-35.13Zm0 9.93a10.93 10.93 0 1 0 7.24 19.11l-6.14-6.14a2.32 2.32 0 1 1 .94-.94l6.14 6.14a10.92 10.92 0 0 0-8.18-18.16Zm0 9.94a.99.99 0 1 0 0 1.98.99.99 0 0 0 0-1.98Z" fill="#343844" fill-rule="nonzero"></path></g></svg>